<svg width="40" height="40" viewBox="0 0 40 40" fill="none" xmlns="http://www.w3.org/2000/svg">
  <rect width="40" height="40" rx="12" fill="url(#paint0_linear)"/>
  <path d="M20 10C14.48 10 10 14.39 10 19.82C10 22.43 11.05 24.83 12.8 26.64L11.84 30.5L15.83 29.56C17.58 30.45 19.56 30.96 21.64 30.96C27.16 30.96 31.64 26.57 31.64 21.14C31.64 15.71 27.16 11.32 21.64 11.32H20ZM21.55 13.54C25.68 13.54 29.05 16.84 29.05 20.88C29.05 24.92 25.68 28.22 21.55 28.22C19.72 28.22 18.04 27.66 16.65 26.71L16.09 26.33L13.86 26.84L14.39 24.71L14.05 24.26C12.86 22.69 12.21 21 12.21 19.18C12.21 15.14 15.58 11.84 19.71 11.84H21.55V13.54ZM17.9 16.7C17.7 16.7 17.38 16.78 17.1 17.08C16.82 17.38 16.22 18 16.22 19.12C16.22 20.24 17.06 21.32 17.17 21.48C17.28 21.64 19.04 24.22 21.58 25.2C24.12 26.18 24.48 25.88 24.9 25.84C25.32 25.8 26.56 25.14 26.73 24.54C26.9 23.94 26.9 23.48 26.84 23.36C26.78 23.24 26.6 23.18 26.32 23.06C26.04 22.94 24.76 22.32 24.46 22.2C24.16 22.08 23.94 22.02 23.72 22.32C23.5 22.62 22.96 23.24 22.78 23.42C22.6 23.6 22.42 23.64 22.14 23.52C21.86 23.4 20.94 23.08 19.96 22.26C19.14 21.58 18.52 20.66 18.34 20.38C18.16 20.1 18.28 19.96 18.4 19.84C18.52 19.72 18.66 19.52 18.78 19.36C18.9 19.2 18.96 19.08 19.08 18.9C19.2 18.72 19.14 18.52 19.08 18.4C19.02 18.28 18.5 16.82 18.28 16.36C18.1 15.94 17.86 16.04 17.74 16.04C17.66 16.04 17.58 16.04 17.5 16.06L17.9 16.7Z" fill="white"/>
  <defs>
    <linearGradient id="paint0_linear" x1="6" y1="4" x2="34" y2="36" gradientUnits="userSpaceOnUse">
      <stop stop-color="#2DD37A"/>
      <stop offset="1" stop-color="#11974F"/>
    </linearGradient>
  </defs>
</svg>
