<svg width="1920" height="960" viewBox="0 0 1920 960" fill="none" xmlns="http://www.w3.org/2000/svg">
  <defs>
    <linearGradient id="bgGradient" x1="0" y1="0" x2="1920" y2="960" gradientUnits="userSpaceOnUse">
      <stop offset="0" stop-color="#F7FBFF"/>
      <stop offset="1" stop-color="#DCEBFF"/>
    </linearGradient>
    <radialGradient id="spotOne" cx="0" cy="0" r="1" gradientUnits="userSpaceOnUse"
      gradientTransform="translate(480 240) rotate(90) scale(320)">
      <stop offset="0" stop-color="#2EA3F2" stop-opacity="0.45"/>
      <stop offset="1" stop-color="#2EA3F2" stop-opacity="0"/>
    </radialGradient>
    <radialGradient id="spotTwo" cx="0" cy="0" r="1" gradientUnits="userSpaceOnUse"
      gradientTransform="translate(1520 720) rotate(90) scale(360)">
      <stop offset="0" stop-color="#6BC7FF" stop-opacity="0.35"/>
      <stop offset="1" stop-color="#6BC7FF" stop-opacity="0"/>
    </radialGradient>
    <linearGradient id="phoneBody" x1="0" y1="0" x2="1" y2="1">
      <stop offset="0" stop-color="#FFFFFF"/>
      <stop offset="1" stop-color="#F0F6FF"/>
    </linearGradient>
    <linearGradient id="shadow" x1="0" y1="0" x2="1" y2="0">
      <stop offset="0" stop-color="#D1E5FF" stop-opacity="0.8"/>
      <stop offset="1" stop-color="#FFFFFF" stop-opacity="0"/>
    </linearGradient>
  </defs>
  <rect width="1920" height="960" fill="url(#bgGradient)"/>
  <circle cx="460" cy="240" r="320" fill="url(#spotOne)"/>
  <circle cx="1500" cy="680" r="360" fill="url(#spotTwo)"/>
  <path d="M0 720C320 620 640 580 960 600C1280 620 1600 700 1920 760V960H0V720Z" fill="url(#shadow)"/>
  <g transform="translate(1080 140)">
    <rect x="60" y="40" width="280" height="560" rx="40" fill="url(#phoneBody)" stroke="#D1E4FF" stroke-width="8"/>
    <rect x="120" y="110" width="160" height="300" rx="24" fill="#2EA3F2" fill-opacity="0.12"/>
    <rect x="120" y="430" width="160" height="68" rx="16" fill="#2EA3F2" fill-opacity="0.18"/>
    <circle cx="200" cy="82" r="8" fill="#CDDFFD"/>
    <rect x="180" y="520" width="40" height="12" rx="6" fill="#CDDFFD"/>
  </g>
  <g transform="translate(1370 240) rotate(10)">
    <rect x="0" y="0" width="200" height="360" rx="34" fill="#FFFFFF" stroke="#D1E4FF" stroke-width="6"/>
    <rect x="36" y="76" width="128" height="120" rx="18" fill="#2EA3F2" fill-opacity="0.1"/>
    <rect x="36" y="220" width="128" height="52" rx="14" fill="#2EA3F2" fill-opacity="0.16"/>
    <circle cx="100" cy="44" r="6" fill="#D7E7FF"/>
  </g>
</svg>
