<svg width="1920" height="960" viewBox="0 0 1920 960" fill="none" xmlns="http://www.w3.org/2000/svg">
  <defs>
    <linearGradient id="bgGradient02" x1="120" y1="80" x2="1800" y2="880" gradientUnits="userSpaceOnUse">
      <stop offset="0" stop-color="#F2F8FF"/>
      <stop offset="1" stop-color="#E3F2FF"/>
    </linearGradient>
    <radialGradient id="spotA" cx="0" cy="0" r="1" gradientUnits="userSpaceOnUse"
      gradientTransform="translate(1520 260) rotate(90) scale(340)">
      <stop offset="0" stop-color="#2EA3F2" stop-opacity="0.4"/>
      <stop offset="1" stop-color="#2EA3F2" stop-opacity="0"/>
    </radialGradient>
    <radialGradient id="spotB" cx="0" cy="0" r="1" gradientUnits="userSpaceOnUse"
      gradientTransform="translate(420 700) rotate(90) scale(300)">
      <stop offset="0" stop-color="#8FD6FF" stop-opacity="0.32"/>
      <stop offset="1" stop-color="#8FD6FF" stop-opacity="0"/>
    </radialGradient>
    <linearGradient id="monitor" x1="0" y1="0" x2="1" y2="1">
      <stop offset="0" stop-color="#FFFFFF"/>
      <stop offset="1" stop-color="#EBF3FF"/>
    </linearGradient>
    <linearGradient id="keyboard" x1="0" y1="0" x2="1" y2="0">
      <stop offset="0" stop-color="#DCE8F8"/>
      <stop offset="1" stop-color="#FFFFFF"/>
    </linearGradient>
  </defs>
  <rect width="1920" height="960" fill="url(#bgGradient02)"/>
  <circle cx="1490" cy="280" r="340" fill="url(#spotA)"/>
  <circle cx="440" cy="700" r="300" fill="url(#spotB)"/>
  <path d="M0 660C240 560 540 520 960 540C1380 560 1680 620 1920 700V960H0V660Z" fill="#D7E7FB" fill-opacity="0.45"/>
  <g transform="translate(1080 220)">
    <rect x="0" y="0" width="420" height="260" rx="28" fill="url(#monitor)" stroke="#D5E4FB" stroke-width="8"/>
    <rect x="40" y="46" width="340" height="172" rx="20" fill="#2EA3F2" fill-opacity="0.12"/>
    <rect x="184" y="12" width="52" height="12" rx="6" fill="#C8DAF5"/>
    <rect x="90" y="230" width="240" height="12" rx="6" fill="#C6DAF7"/>
  </g>
  <g transform="translate(1160 490)">
    <path d="M0 0H340L320 70H20L0 0Z" fill="url(#keyboard)" stroke="#D5E4FB" stroke-width="6"/>
    <rect x="40" y="20" width="80" height="18" rx="8" fill="#D9E8FC"/>
    <rect x="132" y="20" width="80" height="18" rx="8" fill="#D9E8FC"/>
    <rect x="224" y="20" width="80" height="18" rx="8" fill="#D9E8FC"/>
  </g>
  <g transform="translate(1380 170) rotate(-8)">
    <rect x="0" y="0" width="180" height="320" rx="28" fill="#FFFFFF" stroke="#D5E4FB" stroke-width="6"/>
    <rect x="36" y="64" width="108" height="180" rx="18" fill="#2EA3F2" fill-opacity="0.1"/>
    <rect x="36" y="258" width="108" height="40" rx="12" fill="#2EA3F2" fill-opacity="0.18"/>
    <circle cx="90" cy="36" r="6" fill="#D9E7FC"/>
  </g>
</svg>
